<svg width="1653" height="620" viewBox="0 0 1653 620" fill="none" xmlns="http://www.w3.org/2000/svg">
<g filter="url(#filter0_f_99_114)">
<path d="M757.738 303.35C683.616 303.327 625.314 268.923 582.833 200.141C540.351 131.359 519.526 53.1707 520.357 -34.4229C521.189 -122.016 561.935 -177.752 642.596 -201.631C723.258 -225.509 795.784 -240.136 860.174 -245.512C924.564 -250.888 975.48 -228.076 1012.92 -177.075C1050.36 -126.074 1083.06 -71.635 1111.02 -13.7573C1138.97 44.1204 1133.19 98.845 1093.66 150.417C1054.13 201.988 1006.79 240.376 951.642 265.58C896.495 290.784 831.861 303.374 757.738 303.35Z" fill="url(#paint0_linear_99_114)"/>
<path fill-rule="evenodd" clip-rule="evenodd" d="M513.344 -86.5004C566.173 -85.0071 617.525 -60.8263 654.937 -25.3775C692.467 10.1835 713.67 58.3404 717.824 107.251C721.783 153.858 702.196 197.541 677.261 237.44C653.238 275.878 624.446 315.561 578.752 329.777C534.926 343.412 488.62 321.634 443.279 310.235C401.989 299.855 361.694 290.024 326.965 266.479C286.011 238.713 241.76 208.904 227.724 164.095C212.923 116.845 220.135 62.3752 250.845 23.4725C280.155 -13.6571 337.929 -14.0234 383.355 -33.0543C427.626 -51.6015 464.19 -87.8898 513.344 -86.5004Z" fill="url(#paint1_linear_99_114)"/>
<path d="M1151.41 -50.1273C1198.97 -84.9048 1242.87 -79.9396 1283.11 -35.2318C1323.36 9.47608 1362.93 47.5093 1401.81 78.8679C1440.7 110.226 1442.24 146.441 1406.43 187.511C1370.62 228.581 1354.04 275.338 1356.69 327.783C1359.34 380.229 1336.94 403.78 1289.49 398.439C1242.03 393.098 1204 379.507 1175.41 357.667C1146.81 335.826 1098.31 320.428 1029.89 311.472C961.481 302.516 927.366 265.502 927.549 200.43C927.732 135.359 953.199 86.0256 1003.95 52.4309C1054.7 18.8362 1103.85 -15.3499 1151.41 -50.1273Z" fill="url(#paint2_linear_99_114)"/>
</g>
<defs>
<filter id="filter0_f_99_114" x="0.315674" y="-466.281" width="1651.87" height="1085.46" filterUnits="userSpaceOnUse" color-interpolation-filters="sRGB">
<feFlood flood-opacity="0" result="BackgroundImageFix"/>
<feBlend mode="normal" in="SourceGraphic" in2="BackgroundImageFix" result="shape"/>
<feGaussianBlur stdDeviation="110" result="effect1_foregroundBlur_99_114"/>
</filter>
<linearGradient id="paint0_linear_99_114" x1="1247.33" y1="-200.446" x2="1641.6" y2="167.989" gradientUnits="userSpaceOnUse">
<stop stop-color="#FF9A8B"/>
<stop offset="0.5" stop-color="#FF6A88"/>
<stop offset="1" stop-color="#FF99AC"/>
</linearGradient>
<linearGradient id="paint1_linear_99_114" x1="198.775" y1="223.208" x2="736.443" y2="-8.1902" gradientUnits="userSpaceOnUse">
<stop stop-color="#21D4FD"/>
<stop offset="0.85" stop-color="#B721FF"/>
</linearGradient>
<linearGradient id="paint2_linear_99_114" x1="1049.84" y1="583.172" x2="594.967" y2="508.728" gradientUnits="userSpaceOnUse">
<stop stop-color="#FFC13B"/>
<stop offset="1" stop-color="#FF2525"/>
</linearGradient>
</defs>
</svg>
